<?xml version="1.0" encoding="UTF-8" standalone="no"?>
<!-- Created with Inkscape (http://www.inkscape.org/) -->

<svg
   version="1.1"
   id="svg48"
   width="1365.3333"
   height="1365.3333"
   viewBox="0 0 1365.3333 1365.3333"
   sodipodi:docname="favicon.svg"
   inkscape:version="1.2.2 (b0a8486541, 2022-12-01)"
   xmlns:inkscape="http://www.inkscape.org/namespaces/inkscape"
   xmlns:sodipodi="http://sodipodi.sourceforge.net/DTD/sodipodi-0.dtd"
   xmlns:xlink="http://www.w3.org/1999/xlink"
   xmlns="http://www.w3.org/2000/svg"
   xmlns:svg="http://www.w3.org/2000/svg">
  <sodipodi:namedview
     id="namedview6"
     pagecolor="#ffffff"
     bordercolor="#000000"
     borderopacity="0.25"
     inkscape:showpageshadow="2"
     inkscape:pageopacity="0.0"
     inkscape:pagecheckerboard="0"
     inkscape:deskcolor="#d1d1d1"
     showgrid="false"
     inkscape:zoom="0.26618236"
     inkscape:cx="1100.7491"
     inkscape:cy="486.50858"
     inkscape:window-width="1366"
     inkscape:window-height="744"
     inkscape:window-x="0"
     inkscape:window-y="0"
     inkscape:window-maximized="1"
     inkscape:current-layer="svg48" />
  <defs
     id="defs52">
    <linearGradient
       id="linearGradient929"
       inkscape:swatch="solid">
      <stop
         style="stop-color:#000000;stop-opacity:1;"
         offset="0"
         id="stop927" />
    </linearGradient>
    <linearGradient
       id="linearGradient923"
       inkscape:swatch="solid">
      <stop
         style="stop-color:#000000;stop-opacity:1;"
         offset="0"
         id="stop921" />
    </linearGradient>
    <linearGradient
       id="linearGradient917"
       inkscape:swatch="solid">
      <stop
         style="stop-color:#000000;stop-opacity:1;"
         offset="0"
         id="stop915" />
    </linearGradient>
    <linearGradient
       id="linearGradient911"
       inkscape:swatch="solid">
      <stop
         style="stop-color:#000000;stop-opacity:1;"
         offset="0"
         id="stop909" />
    </linearGradient>
    <linearGradient
       id="linearGradient901"
       inkscape:swatch="solid">
      <stop
         style="stop-color:#000000;stop-opacity:1;"
         offset="0"
         id="stop899" />
    </linearGradient>
    <linearGradient
       id="linearGradient3184"
       inkscape:swatch="solid">
      <stop
         style="stop-color:#000000;stop-opacity:1;"
         offset="0"
         id="stop3182" />
    </linearGradient>
    <linearGradient
       id="linearGradient3178"
       inkscape:swatch="solid">
      <stop
         style="stop-color:#000000;stop-opacity:1;"
         offset="0"
         id="stop3176" />
    </linearGradient>
    <linearGradient
       id="linearGradient3172"
       inkscape:swatch="solid">
      <stop
         style="stop-color:#000000;stop-opacity:1;"
         offset="0"
         id="stop3170" />
    </linearGradient>
    <linearGradient
       inkscape:collect="always"
       xlink:href="#linearGradient901"
       id="linearGradient903"
       x1="60.090927"
       y1="619.43079"
       x2="208.62431"
       y2="619.43079"
       gradientUnits="userSpaceOnUse" />
    <linearGradient
       inkscape:collect="always"
       xlink:href="#linearGradient911"
       id="linearGradient913"
       x1="178.38018"
       y1="665.63208"
       x2="1203.6999"
       y2="665.63208"
       gradientUnits="userSpaceOnUse" />
    <linearGradient
       inkscape:collect="always"
       xlink:href="#linearGradient917"
       id="linearGradient919"
       x1="310.72419"
       y1="1220.3995"
       x2="1134.5644"
       y2="1220.3995"
       gradientUnits="userSpaceOnUse" />
    <linearGradient
       inkscape:collect="always"
       xlink:href="#linearGradient923"
       id="linearGradient925"
       x1="1175.6159"
       y1="709.34597"
       x2="1323.8309"
       y2="709.34597"
       gradientUnits="userSpaceOnUse" />
    <linearGradient
       inkscape:collect="always"
       xlink:href="#linearGradient929"
       id="linearGradient931"
       x1="246.40984"
       y1="110.4081"
       x2="1074.3309"
       y2="110.4081"
       gradientUnits="userSpaceOnUse" />
  </defs>
  <path
     style="fill:#ffffff;fill-opacity:1;stroke-width:15;stroke:url(#linearGradient931);stroke-dasharray:none"
     d="m 275.79973,156.62698 c -14.4958,-5.7675 -27.5089,-11.65026 -28.9181,-13.07281 -3.5521,-3.58567 12.5141,-6.45616 63.1734,-11.28697 23.896,-2.27869 53.2229,-5.75058 65.1708,-7.71531 11.948,-1.96473 33.2767,-4.70077 47.397,-6.08009 14.1203,-1.37932 53.22279,-5.81992 86.89439,-9.86799 33.6716,-4.04808 94.1027,-11.105141 134.2914,-15.682361 40.18871,-4.57722 93.51021,-10.93167 118.49241,-14.12099 58.9346,-7.52385 180.4377,-21.307 213.4164,-24.20969 22.4659,-1.97739 28.36147,-0.97487 45.58057,7.75071 19.0286,9.64253 53.0329,41.790671 53.0329,50.138051 0,2.2209 -4.8878,4.06315 -10.8618,4.0939 -5.974,0.0308 -46.4095,2.68986 -89.85667,5.90912 -43.4472,3.21926 -107.4331,7.64385 -142.1909,9.83243 -34.7577,2.18857 -84.5245,5.74713 -110.5929,7.90792 -26.0683,2.16079 -101.60721,7.52028 -167.86421,11.90999 -66.257,4.3897 -144.46189,9.70944 -173.78879,11.82163 -70.2346,5.05847 -72.6815,4.88504 -103.3759,-7.32754 z"
     id="path3403" />
  <path
     style="fill:#ffffff;fill-opacity:1;stroke-width:15;stroke:url(#linearGradient913);stroke-dasharray:none"
     d="m 262.14283,1166.2955 c -4.4367,-4.9609 -12.2635,-15.2407 -17.3929,-22.844 -5.1294,-7.6033 -20.0906,-25.5654 -33.2471,-39.916 -37.9994,-41.4479 -42.2095,-55.4776 -18.2284,-60.7447 8.0599,-1.7703 12.7225,-5.5335 13.9192,-11.2343 2.3176,-11.0413 11.2248,-95.8891 23.9123,-227.78313 10.1238,-105.24206 20.6477,-207.55462 31.8923,-310.05509 3.3364,-30.41305 7.1025,-78.60361 8.3691,-107.09013 l 2.303,-51.79369 -32.5506,-80.5228 c -17.9028,-44.28755 -33.4568,-82.74455 -34.5643,-85.46 -3.5752,-8.7653 7.6635,-5.35647 54.0538,16.3952 116.0831,54.42951 114.0579,53.7128 151.7754,53.7128 18.9525,0 78.33189,-2.63427 131.95409,-5.85393 156.71211,-9.40951 232.04991,-13.52716 291.03261,-15.90659 30.413,-1.22689 82.8459,-3.88533 116.5175,-5.90764 33.6716,-2.02231 80.09217,-4.77748 103.15687,-6.12261 l 41.9357,-2.44569 -1.7609,-16.44205 c -1.1276,-10.52924 0.2607,-19.13816 3.8612,-23.93926 5.5215,-7.3631 5.8496,-7.3631 18.344,0 6.9971,4.12347 19.2024,17.27283 27.1229,29.22081 7.9205,11.94799 24.7645,34.08527 37.4311,49.19397 25.308,30.18745 28.1877,42.76011 10.269,44.83502 -12.8004,1.48224 -17.2132,16.06714 -23.1513,76.51772 -2.2024,22.42059 -6.6797,68.31419 -9.9495,101.98577 -3.2699,33.67159 -12.1055,122.54089 -19.6346,197.48732 -7.5292,74.94644 -15.5493,155.81749 -17.8224,179.71346 -2.2731,23.89596 -5.8608,53.10493 -7.9726,64.90878 -5.4726,30.5885 -4.7626,59.32259 2.3118,93.57226 5.7764,27.9651 14.507,50.9366 47.4167,124.76 12.1322,27.215 16.4851,42.613 12.0465,42.613 -1.9184,0 -96.5473,-42.6709 -138.2287,-62.3311 l -31.1416,-14.689 -55.75277,0.9951 c -30.664,0.5473 -93.0778,3.595 -138.6974,6.7728 -45.6196,3.1777 -108.7168,6.8269 -140.216,8.1092 -31.49921,1.2824 -101.70601,4.9066 -156.01501,8.054 -54.30899,3.1474 -125.11209,6.8869 -157.34029,8.31 -69.215,3.0565 -75.6947,5.9257 -75.6947,33.5173 0,20.2231 -7.8705,24.2652 -20.264,10.4072 z m 900.94857,-21.7333 c -15.4701,-23.9236 -80.6797,-110.3149 -88.8345,-117.6901 -15.9674,-14.441 -24.6933,-37.31207 -24.8065,-65.01946 -0.058,-14.16952 3.6848,-81.75043 8.3172,-150.17978 4.6323,-68.42935 10.2805,-156.40995 12.5514,-195.51244 2.271,-39.10249 6.0272,-86.61931 8.3472,-105.59292 4.6417,-37.95997 0.5743,-60.48402 -11.4913,-63.63558 -3.6675,-0.95794 -22.7732,-1.93208 -42.4572,-2.16476 -30.79727,-0.36405 -36.98307,0.68933 -44.34957,7.5522 l -8.5604,7.97524 1.9432,208.27453 c 1.0688,114.55102 2.7556,228.51024 3.7484,253.24272 l 1.8052,44.96818 -24.5696,-2.43001 c -43.1381,-4.26643 -376.93671,-23.8157 -465.28401,-27.24985 l -25.99089,-1.0103 -4.2682,38.54683 c -2.3475,21.20078 -2.9548,43.4181 -1.3496,49.3718 l 2.9186,10.825 171.50629,-1.018 c 94.32841,-0.5599 213.76041,-1.9578 265.40451,-3.1065 113.07477,-2.5151 106.37647,-4.5629 174.68447,53.4039 56.9091,48.2937 93.1972,76.076 95.8726,73.4005 1.0814,-1.0814 -1.2304,-6.9094 -5.1373,-12.9512 z M 405.49313,1034.5878 c 10.6038,-6.716 14.7612,-24.3635 10.8956,-46.24962 -1.6223,-9.18534 -2.5518,-22.99175 -2.0655,-30.68096 0.6378,-10.08595 -1.5002,-16.13736 -7.6754,-21.72361 -7.485,-6.77116 -14.4277,-7.7447 -55.303,-7.75477 l -46.7434,-0.0118 -4.1852,24.03354 c -5.6765,32.59678 -5.2983,73.72042 0.7519,81.75332 8.6316,11.4603 86.4844,11.9331 104.325,0.6336 z m 505.0102,-142.59618 c 5.632,-5.63206 6.4094,-14.55924 5.4174,-62.2085 -0.6371,-30.59809 0.3701,-128.66938 2.2378,-217.93626 2.8451,-135.97086 2.5169,-162.84681 -2.023,-165.65263 -2.9806,-1.84207 -47.2552,-3.93946 -98.3881,-4.66088 -51.133,-0.72142 -146.8327,-2.95638 -212.66611,-4.96658 -65.8334,-2.0102 -122.2807,-2.66346 -125.4385,-1.45169 -3.1578,1.21176 -6.5946,6.00627 -7.6374,10.65447 -1.0427,4.6482 -3.73519,95.49149 -5.98329,201.87398 -2.2482,106.38251 -5.1303,199.94374 -6.4048,207.91389 -1.7898,11.19299 -0.5643,16.24417 5.3846,22.19308 8.42139,8.42141 33.93249,9.69299 309.1483,15.40954 64.0846,1.3311 117.2581,3.09229 118.1633,3.91372 3.7423,3.39627 12.0256,1.08195 18.1898,-5.08214 z m -505.9763,-10.47441 c 6.7563,-4.94026 6.9945,-16.66469 4.7552,-234.02246 -1.2965,-125.85191 -3.4199,-235.93119 -4.7186,-244.62063 -1.2987,-8.68944 -0.3848,-20.92869 2.031,-27.19832 4.266,-11.07189 4.9848,-11.32616 25.0217,-8.85171 11.3463,1.40119 87.28159,6.15259 168.74509,10.55865 81.46351,4.40606 183.66321,10.30666 227.11041,13.11243 43.4472,2.80578 81.9935,4.33906 85.6585,3.4073 11.337,-2.88223 15.3261,-23.08312 12.4995,-63.29638 l -2.6243,-37.33356 -225.5054,2.5039 c -124.02801,1.37714 -241.5019,3.57573 -261.0532,4.88574 -41.7981,2.80066 -63.1631,-1.84456 -79.4009,-17.26355 -21.7698,-20.67187 -141.0844,-115.57659 -142.9535,-113.70746 -2.6894,2.6894 5.6581,14.84718 67.7481,98.67219 l 55.4242,74.82577 -6.7427,104.88767 c -3.7084,57.68823 -10.3073,164.43012 -14.6642,237.20419 -4.3569,72.77408 -9.6667,138.74357 -11.7995,146.59886 -9.1617,33.74391 -2.2756,47.15626 26.2418,51.11209 33.7176,4.67721 66.71,4.02171 74.2268,-1.47472 z M 1077.7981,401.28105 c 8.6273,-5.46448 17.4011,-64.50068 12.3652,-83.20237 -7.1273,-26.46867 -17.8016,-31.5124 -65.4105,-30.90704 -22.5428,0.28663 -42.56097,1.55356 -44.48497,2.81537 -8.5503,5.60786 -11.5816,20.84239 -11.6332,58.46445 -0.043,31.52039 1.2742,41.47859 6.0086,45.42208 5.2672,4.38737 35.99977,8.14123 83.88867,10.2467 7.6033,0.33426 16.2731,-0.94335 19.2662,-2.83919 z"
     id="path3405" />
  <path
     style="fill:#ffffff;fill-opacity:1;stroke-width:15;stroke-dasharray:none;stroke:url(#linearGradient925)"
     d="m 1189.5419,1109.7896 c -16.8566,-37.0281 -17.4889,-49.5702 -6.8375,-135.62778 15.0574,-121.65519 69.755,-588.4954 76.1732,-650.13174 l 3.0663,-29.44707 20.2187,20.23082 c 33.551,33.57101 50.1335,79.39237 37.3654,103.24973 -2.0003,3.73766 -29.6259,163.1412 -61.3902,354.23009 -31.7642,191.08884 -58.3656,349.21165 -59.1143,351.38395 -0.7487,2.1724 -5.0154,-4.0772 -9.4816,-13.888 z"
     id="path3407" />
  <path
     style="fill:#ffffff;fill-opacity:1;stroke-width:15;stroke-dasharray:none;stroke:url(#linearGradient919)"
     d="m 345.06053,1254.0277 c -50.6587,-37.1409 -48.4782,-40.6202 28.1905,-44.9805 26.0683,-1.4825 63.3934,-3.5995 82.9446,-4.7044 35.45909,-2.0039 96.30549,-6.2709 193.53759,-13.5722 28.24071,-2.1206 78.89621,-5.5757 112.56781,-7.6779 33.6716,-2.1022 112.7652,-7.5332 175.7637,-12.069 150.22797,-10.8161 142.20467,-10.919 171.43647,2.1994 l 25.0632,11.2477 -15.2916,5.2941 c -8.4105,2.9118 -32.183,7.0133 -52.8279,9.1145 -20.6448,2.1011 -50.8665,5.5677 -67.15917,7.7035 -16.2927,2.1357 -68.7255,8.381 -116.5175,13.8784 -47.7919,5.4973 -108.223,12.6376 -134.2913,15.8672 -26.0684,3.2297 -86.49951,10.3022 -134.29141,15.7166 -47.7919,5.4145 -100.2248,11.5906 -116.5175,13.7247 -64.28509,8.4204 -96.58209,11.9698 -108.25859,11.8974 -8.6161,-0.053 -21.6666,-7.0098 -44.3489,-23.6395 z"
     id="path3409" />
  <path
     style="fill:#ffffff;fill-opacity:1;stroke-width:15;stroke:url(#linearGradient903);stroke-dasharray:none"
     d="m 113.91613,1028.1047 c -3.6031,-2.8163 -17.187803,-20.4685 -30.188203,-39.22707 l -23.637,-34.10665 60.771003,-364.81771 c 33.424,-200.64976 60.7834,-368.96496 60.7987,-374.0338 0.046,-15.13536 8.9485,-7.70179 18.4766,15.42706 10.984,26.66303 11.1465,40.69334 1.415,122.15576 -15.1423,126.75657 -31.8977,268.81081 -53.5755,454.22082 -28.2597,241.70499 -25.9446,226.72529 -34.0606,220.38159 z"
     id="path3411" />
</svg>
